# xmcd CD database file
#
# Track frame offsets:
#	150
#	2174
#	95173
#	162897
#	214721
#	225370
#	247044
#
# Disc length: 3540 seconds
#
# Revision: 1
# Processed by: cddbd v1.5.2PL0 Copyright (c) Steve Scherf et al.
# Submitted via: CDex 1.51
#
DISCID=520dd207
DTITLE=Dr. Frank Kinslow - Quantenheilung Alltag 2 CD2
DYEAR=2010
DGENRE=New Age
TTITLE0=Einführungsmusik
TTITLE1=Andere Menschen beim Heilen körperlicher Probleme unterstützen
TTITLE2=Andere Menschen beim Heilen emotionaler Probleme unterstützen
TTITLE3=Liebesbeziehungen
TTITLE4=Beziehungen innerhalb der Familie
TTITLE5=QE für Kinder
TTITLE6=QE für Haustiere
EXTD=YEAR: 2010
EXTT0=
EXTT1=
EXTT2=
EXTT3=
EXTT4=
EXTT5=
EXTT6=
PLAYORDER=
